<svg width="21" height="21" viewBox="0 0 21 21" fill="none" xmlns="http://www.w3.org/2000/svg">
<path d="M16.3925 4.60752C15.6212 3.83007 14.7033 3.21336 13.692 2.7931C12.6807 2.37284 11.596 2.15738 10.5009 2.15919C9.40547 2.15748 8.32061 2.37298 7.30903 2.79323C6.29746 3.21348 5.37925 3.83013 4.60753 4.60752C1.35836 7.85586 1.35836 13.1434 4.60753 16.3925C5.37927 17.1701 6.29759 17.7869 7.30934 18.2072C8.32108 18.6274 9.40614 18.8428 10.5017 18.8409C11.5968 18.8428 12.6814 18.6275 13.6927 18.2073C14.704 17.7872 15.622 17.1707 16.3934 16.3934C19.6425 13.145 19.6425 7.85752 16.3925 4.60752ZM10.6509 3.83336H10.3517C10.4025 3.83252 10.4509 3.82586 10.5017 3.82586C10.5525 3.82586 10.6 3.83252 10.6509 3.83336ZM15.7025 14.6667H13.8334L12.785 16.7634C12.0537 17.0335 11.2805 17.1726 10.5009 17.1742C9.7198 17.1728 8.94512 17.0334 8.21253 16.7625L7.1667 14.675H5.3042C4.61706 13.8208 4.15237 12.8095 3.9517 11.7317L5.50003 9.66669L4.4867 7.63919C4.81003 6.95135 5.24953 6.32439 5.78586 5.78586C6.53652 5.03257 7.4566 4.46995 8.4692 4.14502L10.5 5.50002L12.5317 4.14586C13.544 4.47101 14.464 5.03328 15.215 5.78586C15.7508 6.32375 16.19 6.94983 16.5134 7.63669L15.5 9.66669L17.0484 11.7317C16.8486 12.806 16.3863 13.8143 15.7025 14.6667Z" fill="#23262D"/>
<path d="M7.58331 9.66665L8.83331 13H12.1666L13.4166 9.66665L10.5 7.58331L7.58331 9.66665Z" fill="#23262D"/>
</svg>
