<svg width="21" height="20" viewBox="0 0 21 20" fill="none" xmlns="http://www.w3.org/2000/svg">
<path d="M18.3917 3.625L17.275 3.15833V10.6833L19.3 5.8C19.6417 4.95 19.25 3.975 18.3917 3.625ZM2.14169 6.70833L6.27502 16.6667C6.39674 16.9697 6.60435 17.2305 6.87233 17.417C7.14031 17.6036 7.45696 17.7077 7.78336 17.7167C8.00002 17.7167 8.22502 17.675 8.44169 17.5833L14.5834 15.0417C15.2084 14.7833 15.5917 14.1667 15.6084 13.55C15.6167 13.3333 15.575 13.0917 15.5 12.875L11.3334 2.91667C11.2156 2.61168 11.0087 2.34922 10.7397 2.16343C10.4707 1.97764 10.152 1.87714 9.82502 1.875C9.60836 1.875 9.39169 1.925 9.18336 2L3.05002 4.54167C2.64233 4.70862 2.31762 5.03065 2.14729 5.43694C1.97695 5.84324 1.97494 6.30055 2.14169 6.70833ZM15.6 3.54167C15.6 3.09964 15.4244 2.67572 15.1119 2.36316C14.7993 2.05059 14.3754 1.875 13.9334 1.875H12.725L15.6 8.825" fill="#F0DC28"/>
</svg>
