<svg width="20" height="20" viewBox="0 0 20 20" fill="none" xmlns="http://www.w3.org/2000/svg">
<g opacity="0.55">
<path d="M6.66699 11.2499H13.3337M6.66699 7.08325H10.0003" stroke="#061F35" stroke-width="1.25" stroke-linecap="round" stroke-linejoin="round"/>
<path d="M5.08267 15.8333C3.99924 15.7267 3.18762 15.4013 2.6433 14.8569C1.66699 13.8807 1.66699 12.3093 1.66699 9.16659V8.74992C1.66699 5.60722 1.66699 4.03588 2.6433 3.05956C3.61962 2.08325 5.19096 2.08325 8.33366 2.08325H11.667C14.8097 2.08325 16.3811 2.08325 17.3573 3.05956C18.3337 4.03588 18.3337 5.60722 18.3337 8.74992V9.16659C18.3337 12.3093 18.3337 13.8807 17.3573 14.8569C16.3811 15.8333 14.8097 15.8333 11.667 15.8333C11.1999 15.8437 10.8279 15.8792 10.4625 15.9624C9.46383 16.1923 8.53908 16.7033 7.62522 17.149C6.32307 17.7839 5.67199 18.1014 5.2634 17.8042C4.48173 17.222 5.24578 15.4182 5.41699 14.5833" stroke="#061F35" stroke-width="1.25" stroke-linecap="round"/>
</g>
</svg>
