<svg width="26" height="27" viewBox="0 0 26 27" fill="none" xmlns="http://www.w3.org/2000/svg">
<g opacity="0.55" filter="url(#filter0_d_1259_3891)">
<path d="M10.6321 4.76019L10.2965 4.00521C10.0771 3.51157 9.96744 3.26473 9.80338 3.07584C9.59777 2.83912 9.32976 2.66495 9.02994 2.57321C8.7907 2.5 8.52059 2.5 7.98038 2.5C7.19013 2.5 6.795 2.5 6.46331 2.65191C6.0726 2.83085 5.71974 3.2194 5.57915 3.6255C5.4598 3.97024 5.49399 4.32453 5.56235 5.03308C6.29013 12.5752 10.4251 16.7101 17.9671 17.4378C18.6757 17.5062 19.03 17.5404 19.3747 17.4211C19.7808 17.2805 20.1693 16.9276 20.3483 16.5369C20.5002 16.2052 20.5002 15.8101 20.5002 15.0198C20.5002 14.4796 20.5002 14.2095 20.427 13.9702C20.3353 13.6704 20.1611 13.4024 19.9243 13.1968C19.7355 13.0327 19.4887 12.9231 18.995 12.7037L18.24 12.3681C17.7054 12.1305 17.4381 12.0117 17.1665 11.9859C16.9065 11.9612 16.6444 11.9977 16.4011 12.0924C16.1468 12.1914 15.9222 12.3787 15.4727 12.7532C15.0253 13.126 14.8017 13.3124 14.5283 13.4122C14.286 13.5007 13.9657 13.5336 13.7105 13.4959C13.4226 13.4535 13.2022 13.3358 12.7613 13.1001C11.3896 12.3671 10.6331 11.6107 9.9001 10.2389C9.66449 9.79808 9.54669 9.57758 9.50426 9.28975C9.46665 9.0345 9.49944 8.71417 9.58795 8.47192C9.6878 8.19857 9.87421 7.97488 10.247 7.5275C10.6216 7.07807 10.8088 6.85335 10.9078 6.59909C11.0026 6.35578 11.0391 6.09367 11.0143 5.83373C10.9885 5.5621 10.8697 5.2948 10.6321 4.76019Z" stroke="#061F35" stroke-width="1.25" stroke-linecap="round"/>
</g>
<defs>
<filter id="filter0_d_1259_3891" x="-1" y="0" width="28" height="28" filterUnits="userSpaceOnUse" color-interpolation-filters="sRGB">
<feFlood flood-opacity="0" result="BackgroundImageFix"/>
<feColorMatrix in="SourceAlpha" type="matrix" values="0 0 0 0 0 0 0 0 0 0 0 0 0 0 0 0 0 0 127 0" result="hardAlpha"/>
<feOffset dy="4"/>
<feGaussianBlur stdDeviation="2"/>
<feComposite in2="hardAlpha" operator="out"/>
<feColorMatrix type="matrix" values="0 0 0 0 0 0 0 0 0 0 0 0 0 0 0 0 0 0 0.25 0"/>
<feBlend mode="normal" in2="BackgroundImageFix" result="effect1_dropShadow_1259_3891"/>
<feBlend mode="normal" in="SourceGraphic" in2="effect1_dropShadow_1259_3891" result="shape"/>
</filter>
</defs>
</svg>
