<svg width="11" height="12" viewBox="0 0 11 12" fill="none" xmlns="http://www.w3.org/2000/svg">
<path d="M8.92805 4.41911V3.17542C8.92805 2.89588 8.81701 2.6278 8.61935 2.43014C8.42169 2.23248 8.1536 2.12144 7.87407 2.12144H6.65672L5.79246 1.25717C5.59498 1.06087 5.32785 0.950684 5.0494 0.950684C4.77095 0.950684 4.50382 1.06087 4.30634 1.25717L3.46843 2.12144H2.22473C1.9452 2.12144 1.67712 2.23248 1.47946 2.43014C1.2818 2.6278 1.17075 2.89588 1.17075 3.17542V4.41911L0.30649 5.25703C0.110185 5.4545 0 5.72164 0 6.00008C0 6.27853 0.110185 6.54566 0.30649 6.74314L1.17075 7.60741V8.82475C1.17075 9.10429 1.2818 9.37237 1.47946 9.57003C1.67712 9.76769 1.9452 9.87873 2.22473 9.87873H3.46843L4.30634 10.743C4.50382 10.9393 4.77095 11.0495 5.0494 11.0495C5.32785 11.0495 5.59498 10.9393 5.79246 10.743L6.65672 9.87873H7.87407C8.1536 9.87873 8.42169 9.76769 8.61935 9.57003C8.81701 9.37237 8.92805 9.10429 8.92805 8.82475V7.60741L9.79231 6.74314C9.98862 6.54566 10.0988 6.27853 10.0988 6.00008C10.0988 5.72164 9.98862 5.4545 9.79231 5.25703L8.92805 4.41911Z" fill="#0A66C2"/>
<path d="M4.6541 7.31719C4.58474 7.3176 4.51599 7.3043 4.45178 7.27808C4.38757 7.25185 4.32917 7.21321 4.27993 7.16437L3.46837 6.37388C3.36913 6.27465 3.31339 6.14006 3.31339 5.99972C3.31339 5.85938 3.36913 5.72479 3.46837 5.62556C3.5676 5.52632 3.70219 5.47057 3.84253 5.47057C3.98287 5.47057 4.11746 5.52632 4.21669 5.62556L4.63302 6.04715L5.83982 4.83507C5.93906 4.73025 6.07587 4.66914 6.22016 4.66518C6.36445 4.66123 6.5044 4.71476 6.60923 4.81399C6.71405 4.91323 6.77516 5.05004 6.77912 5.19433C6.78307 5.33862 6.72954 5.47857 6.63031 5.5834L5.04934 7.16437C4.99762 7.21581 4.93579 7.25595 4.86776 7.28226C4.79972 7.30857 4.72697 7.32046 4.6541 7.31719Z" fill="#F9FCFF"/>
</svg>
